<?xml version="1.0" encoding="UTF-8" standalone="no"?>
<!-- Created with Inkscape (http://www.inkscape.org/) -->

<svg
   xmlns:dc="http://purl.org/dc/elements/1.1/"
   xmlns:cc="http://creativecommons.org/ns#"
   xmlns:rdf="http://www.w3.org/1999/02/22-rdf-syntax-ns#"
   xmlns:svg="http://www.w3.org/2000/svg"
   xmlns="http://www.w3.org/2000/svg"
   xmlns:sodipodi="http://sodipodi.sourceforge.net/DTD/sodipodi-0.dtd"
   xmlns:inkscape="http://www.inkscape.org/namespaces/inkscape"
   width="128"
   height="128"
   id="svg3038"
   version="1.1"
   inkscape:version="0.48.4 r9939"
   sodipodi:docname="ic_account_large.svg"
   inkscape:export-filename="C:\Users\Noorzaini Ilhami\Documents\GitHub\Financius\financius\src\main\res\drawable-xxhdpi\ic_account_large.png"
   inkscape:export-xdpi="180"
   inkscape:export-ydpi="180">
  <defs
     id="defs3040" />
  <sodipodi:namedview
     id="base"
     pagecolor="#ffffff"
     bordercolor="#666666"
     borderopacity="1.0"
     inkscape:pageopacity="0.0"
     inkscape:pageshadow="2"
     inkscape:zoom="1.4"
     inkscape:cx="42.086528"
     inkscape:cy="118.12477"
     inkscape:document-units="px"
     inkscape:current-layer="layer1"
     showgrid="false"
     borderlayer="true"
     inkscape:showpageshadow="false"
     inkscape:window-width="1061"
     inkscape:window-height="633"
     inkscape:window-x="130"
     inkscape:window-y="130"
     inkscape:window-maximized="0" />
  <metadata
     id="metadata3043">
    <rdf:RDF>
      <cc:Work
         rdf:about="">
        <dc:format>image/svg+xml</dc:format>
        <dc:type
           rdf:resource="http://purl.org/dc/dcmitype/StillImage" />
        <dc:title></dc:title>
      </cc:Work>
    </rdf:RDF>
  </metadata>
  <g
     inkscape:label="Layer 1"
     inkscape:groupmode="layer"
     id="layer1"
     transform="translate(0,-924.36218)">
    <path
       inkscape:connector-curvature="0"
       d="m 120.36842,1028.1517 v 6.6315 c 0,7.3279 -5.93526,13.2632 -13.26316,13.2632 H 14.26316 C 6.93526,1048.0464 1,1042.1111 1,1034.7832 v -92.84207 c 0,-7.3279 5.93526,-13.26316 13.26316,-13.26316 h 92.8421 c 7.3279,0 13.26316,5.93526 13.26316,13.26316 v 6.63158 H 60.68421 c -7.32789,0 -13.26316,5.93526 -13.26316,13.26315 v 53.05264 c 0,7.3279 5.93527,13.2632 13.26316,13.2632 h 59.68421 z M 60.68421,1014.8885 H 127 V 961.83586 H 60.68421 v 53.05264 z m 26.52632,-16.57895 c -5.50421,0 -9.94737,-4.44316 -9.94737,-9.94737 0,-5.50421 4.44316,-9.94737 9.94737,-9.94737 5.50421,0 9.94736,4.44316 9.94736,9.94737 0,5.50421 -4.44315,9.94737 -9.94736,9.94737 z"
       id="path3012"
       style="fill:#000000;fill-opacity:0.2" />
  </g>
</svg>
